<mxfile host="app.diagrams.net" agent="Mozilla/5.0 (Macintosh; Intel Mac OS X 10_15_7) AppleWebKit/605.1.15 (KHTML, like Gecko) Version/18.3.1 Safari/605.1.15" version="26.2.14">
  <diagram name="Page-1" id="IUfqGNqF_nU_3NrTcYip">
    <mxGraphModel dx="3493" dy="2309" grid="1" gridSize="10" guides="1" tooltips="1" connect="1" arrows="1" fold="1" page="1" pageScale="1" pageWidth="3000" pageHeight="3000" background="light-dark(#FFFFFF,#000000)" math="0" shadow="0">
      <root>
        <mxCell id="0" />
        <mxCell id="1" parent="0" />
        <mxCell id="zjnKQ3IpLmYWNhm0Xe3--33" style="edgeStyle=orthogonalEdgeStyle;rounded=1;orthogonalLoop=1;jettySize=auto;html=1;exitX=0.5;exitY=1;exitDx=0;exitDy=0;entryX=0.5;entryY=0;entryDx=0;entryDy=0;fontFamily=Helvetica;labelBackgroundColor=default;shape=flexArrow;strokeColor=#0e8088;strokeWidth=4;align=center;verticalAlign=middle;fontSize=11;fontColor=default;endArrow=classic;fillColor=#B0E3E6;sketch=1;jiggle=2;fillStyle=solid;curveFitting=1;gradientColor=none;" parent="1" source="zjnKQ3IpLmYWNhm0Xe3--6" target="zjnKQ3IpLmYWNhm0Xe3--12" edge="1">
          <mxGeometry relative="1" as="geometry" />
        </mxCell>
        <mxCell id="zjnKQ3IpLmYWNhm0Xe3--7" value="7. Database Storage" style="whiteSpace=wrap;strokeWidth=2;fontSize=75;fontFamily=Gloria Hallelujah;fontSource=https%3A%2F%2Ffonts.googleapis.com%2Fcss%3Ffamily%3DGloria%2BHallelujah;labelBackgroundColor=none;strokeColor=#b46504;align=center;verticalAlign=middle;fontColor=default;fillColor=#fad7ac;rounded=1;dashed=1;dashPattern=12 12;sketch=1;jiggle=2;curveFitting=1;gradientColor=none;glass=0;" parent="1" vertex="1">
          <mxGeometry x="70" y="1757" width="870" height="214" as="geometry" />
        </mxCell>
        <mxCell id="zjnKQ3IpLmYWNhm0Xe3--8" value="9. Cache Update" style="whiteSpace=wrap;strokeWidth=2;fontSize=75;fontFamily=Gloria Hallelujah;fontSource=https%3A%2F%2Ffonts.googleapis.com%2Fcss%3Ffamily%3DGloria%2BHallelujah;labelBackgroundColor=none;strokeColor=#b46504;align=center;verticalAlign=middle;fontColor=default;fillColor=#fad7ac;rounded=1;dashed=1;dashPattern=12 12;sketch=1;jiggle=2;curveFitting=1;gradientColor=none;glass=0;" parent="1" vertex="1">
          <mxGeometry x="750" y="2170" width="690" height="214" as="geometry" />
        </mxCell>
        <mxCell id="zjnKQ3IpLmYWNhm0Xe3--9" value="10. Distribution Processing (Fan out)" style="whiteSpace=wrap;strokeWidth=2;fontSize=75;fontFamily=Gloria Hallelujah;fontSource=https%3A%2F%2Ffonts.googleapis.com%2Fcss%3Ffamily%3DGloria%2BHallelujah;labelBackgroundColor=none;strokeColor=#b46504;align=center;verticalAlign=middle;fillColor=#fad7ac;rounded=1;dashed=1;dashPattern=12 12;sketch=1;jiggle=2;curveFitting=1;fontColor=default;gradientColor=none;glass=0;" parent="1" vertex="1">
          <mxGeometry x="1470" y="2170" width="880" height="370" as="geometry" />
        </mxCell>
        <mxCell id="zjnKQ3IpLmYWNhm0Xe3--10" value="11. Timeline Updates" style="whiteSpace=wrap;strokeWidth=2;fontSize=75;fontFamily=Gloria Hallelujah;fontSource=https%3A%2F%2Ffonts.googleapis.com%2Fcss%3Ffamily%3DGloria%2BHallelujah;labelBackgroundColor=none;strokeColor=#b46504;align=center;verticalAlign=middle;fontColor=default;fillColor=#fad7ac;rounded=1;dashed=1;dashPattern=12 12;sketch=1;jiggle=2;curveFitting=1;gradientColor=none;glass=0;" parent="1" vertex="1">
          <mxGeometry x="963.75" y="2640" width="860" height="290" as="geometry" />
        </mxCell>
        <mxCell id="zjnKQ3IpLmYWNhm0Xe3--11" value="12. Notification Generation" style="whiteSpace=wrap;strokeWidth=2;fontSize=75;fontFamily=Gloria Hallelujah;fontSource=https%3A%2F%2Ffonts.googleapis.com%2Fcss%3Ffamily%3DGloria%2BHallelujah;labelBackgroundColor=none;strokeColor=#b46504;align=center;verticalAlign=middle;fontColor=default;fillColor=#fad7ac;rounded=1;dashed=1;dashPattern=12 12;sketch=1;jiggle=2;curveFitting=1;gradientColor=none;glass=0;" parent="1" vertex="1">
          <mxGeometry x="1982.8" y="2640" width="800" height="284" as="geometry" />
        </mxCell>
        <mxCell id="zjnKQ3IpLmYWNhm0Xe3--12" value="13. Analytics Processing" style="whiteSpace=wrap;strokeWidth=2;fontSize=75;fontFamily=Gloria Hallelujah;fontSource=https%3A%2F%2Ffonts.googleapis.com%2Fcss%3Ffamily%3DGloria%2BHallelujah;labelBackgroundColor=none;strokeColor=#b46504;align=center;verticalAlign=middle;fontColor=default;fillColor=#fad7ac;rounded=1;dashed=1;dashPattern=12 12;sketch=1;jiggle=2;curveFitting=1;gradientColor=none;glass=0;" parent="1" vertex="1">
          <mxGeometry x="2410" y="2160" width="510" height="370" as="geometry" />
        </mxCell>
        <mxCell id="zjnKQ3IpLmYWNhm0Xe3--13" value="14. Indexing" style="whiteSpace=wrap;strokeWidth=2;fontSize=75;fontFamily=Gloria Hallelujah;fontSource=https%3A%2F%2Ffonts.googleapis.com%2Fcss%3Ffamily%3DGloria%2BHallelujah;labelBackgroundColor=none;strokeColor=#b46504;align=center;verticalAlign=middle;fontColor=default;fillColor=#fad7ac;rounded=1;dashed=1;dashPattern=12 12;sketch=1;jiggle=2;curveFitting=1;gradientColor=none;glass=0;" parent="1" vertex="1">
          <mxGeometry x="2210" y="1750" width="670" height="214" as="geometry" />
        </mxCell>
        <mxCell id="zjnKQ3IpLmYWNhm0Xe3--14" value="8. Confirmation" style="whiteSpace=wrap;strokeWidth=2;fontSize=75;fontFamily=Gloria Hallelujah;fontSource=https%3A%2F%2Ffonts.googleapis.com%2Fcss%3Ffamily%3DGloria%2BHallelujah;labelBackgroundColor=none;strokeColor=#b46504;align=center;verticalAlign=middle;fontColor=default;fillColor=#fad7ac;rounded=1;dashed=1;dashPattern=12 12;sketch=1;jiggle=2;curveFitting=1;gradientColor=none;glass=0;" parent="1" vertex="1">
          <mxGeometry x="30" y="2174" width="670" height="210" as="geometry" />
        </mxCell>
        <mxCell id="zjnKQ3IpLmYWNhm0Xe3--16" value="" style="startArrow=none;endArrow=classic;exitX=0.5;exitY=1;entryX=0.5;entryY=0;rounded=1;fontSize=11;fontFamily=Helvetica;labelBackgroundColor=default;exitDx=0;exitDy=0;strokeColor=#0e8088;strokeWidth=4;align=center;verticalAlign=middle;fontColor=default;fillColor=#B0E3E6;shape=flexArrow;sketch=1;jiggle=2;fillStyle=solid;curveFitting=1;gradientColor=none;" parent="1" source="zjnKQ3IpLmYWNhm0Xe3--38" target="zjnKQ3IpLmYWNhm0Xe3--3" edge="1">
          <mxGeometry relative="1" as="geometry">
            <Array as="points" />
            <mxPoint x="1592.5" y="1022" as="sourcePoint" />
          </mxGeometry>
        </mxCell>
        <mxCell id="zjnKQ3IpLmYWNhm0Xe3--17" value="" style="startArrow=none;endArrow=classic;exitX=0.5;exitY=1;entryX=0.5;entryY=0;rounded=1;fontSize=11;fontFamily=Helvetica;labelBackgroundColor=default;strokeColor=#0e8088;strokeWidth=4;align=center;verticalAlign=middle;fontColor=default;fillColor=#B0E3E6;shape=flexArrow;sketch=1;jiggle=2;fillStyle=solid;curveFitting=1;gradientColor=none;" parent="1" source="zjnKQ3IpLmYWNhm0Xe3--3" target="zjnKQ3IpLmYWNhm0Xe3--4" edge="1">
          <mxGeometry relative="1" as="geometry">
            <Array as="points" />
          </mxGeometry>
        </mxCell>
        <mxCell id="zjnKQ3IpLmYWNhm0Xe3--18" value="" style="startArrow=none;endArrow=classic;exitX=0.5;exitY=1;entryX=0.5;entryY=0;rounded=1;fontSize=11;fontFamily=Helvetica;labelBackgroundColor=default;shape=flexArrow;strokeColor=#0e8088;strokeWidth=4;align=center;verticalAlign=middle;fontColor=default;fillColor=#B0E3E6;sketch=1;jiggle=2;fillStyle=solid;curveFitting=1;gradientColor=none;" parent="1" source="zjnKQ3IpLmYWNhm0Xe3--4" target="zjnKQ3IpLmYWNhm0Xe3--5" edge="1">
          <mxGeometry relative="1" as="geometry">
            <Array as="points" />
          </mxGeometry>
        </mxCell>
        <mxCell id="zjnKQ3IpLmYWNhm0Xe3--19" value="" style="startArrow=none;endArrow=classic;exitX=0.5;exitY=1;entryX=0.5;entryY=0;rounded=1;fontSize=11;fontFamily=Helvetica;labelBackgroundColor=default;edgeStyle=orthogonalEdgeStyle;shape=flexArrow;strokeColor=#0e8088;strokeWidth=4;align=center;verticalAlign=middle;fontColor=default;fillColor=#B0E3E6;sketch=1;jiggle=2;fillStyle=solid;curveFitting=1;gradientColor=none;" parent="1" source="zjnKQ3IpLmYWNhm0Xe3--5" target="zjnKQ3IpLmYWNhm0Xe3--6" edge="1">
          <mxGeometry relative="1" as="geometry" />
        </mxCell>
        <mxCell id="zjnKQ3IpLmYWNhm0Xe3--20" value="" style="startArrow=none;endArrow=classic;exitX=0.5;exitY=1;entryX=0.5;entryY=0;rounded=1;fontSize=11;fontFamily=Helvetica;labelBackgroundColor=default;exitDx=0;exitDy=0;edgeStyle=orthogonalEdgeStyle;shape=flexArrow;strokeColor=#0e8088;strokeWidth=4;align=center;verticalAlign=middle;fontColor=default;fillColor=#B0E3E6;sketch=1;jiggle=2;fillStyle=solid;curveFitting=1;gradientColor=none;" parent="1" source="zjnKQ3IpLmYWNhm0Xe3--5" target="zjnKQ3IpLmYWNhm0Xe3--7" edge="1">
          <mxGeometry relative="1" as="geometry" />
        </mxCell>
        <mxCell id="zjnKQ3IpLmYWNhm0Xe3--21" value="" style="startArrow=none;endArrow=classic;entryX=0.5;entryY=0;rounded=1;fontSize=11;fontFamily=Helvetica;labelBackgroundColor=default;exitX=0.5;exitY=1;exitDx=0;exitDy=0;edgeStyle=orthogonalEdgeStyle;shape=flexArrow;strokeColor=#0e8088;strokeWidth=4;align=center;verticalAlign=middle;fontColor=default;fillColor=#B0E3E6;sketch=1;jiggle=2;fillStyle=solid;curveFitting=1;gradientColor=none;" parent="1" source="zjnKQ3IpLmYWNhm0Xe3--6" target="zjnKQ3IpLmYWNhm0Xe3--8" edge="1">
          <mxGeometry relative="1" as="geometry">
            <mxPoint x="1225" y="1513" as="sourcePoint" />
          </mxGeometry>
        </mxCell>
        <mxCell id="zjnKQ3IpLmYWNhm0Xe3--22" value="" style="startArrow=none;endArrow=classic;exitX=0.5;exitY=1;entryX=0.5;entryY=0;rounded=1;fontSize=11;fontFamily=Helvetica;labelBackgroundColor=default;edgeStyle=orthogonalEdgeStyle;shape=flexArrow;strokeColor=#0e8088;strokeWidth=4;align=center;verticalAlign=middle;fontColor=default;fillColor=#B0E3E6;sketch=1;jiggle=2;fillStyle=solid;curveFitting=1;gradientColor=none;" parent="1" source="zjnKQ3IpLmYWNhm0Xe3--6" target="zjnKQ3IpLmYWNhm0Xe3--9" edge="1">
          <mxGeometry relative="1" as="geometry" />
        </mxCell>
        <mxCell id="zjnKQ3IpLmYWNhm0Xe3--23" value="" style="startArrow=none;endArrow=classic;exitX=0.5;exitY=1;entryX=0.5;entryY=0;rounded=1;fontSize=11;fontFamily=Helvetica;labelBackgroundColor=default;exitDx=0;exitDy=0;edgeStyle=orthogonalEdgeStyle;shape=flexArrow;strokeColor=#0e8088;strokeWidth=4;align=center;verticalAlign=middle;fontColor=default;fillColor=#B0E3E6;sketch=1;jiggle=2;fillStyle=solid;curveFitting=1;gradientColor=none;" parent="1" source="zjnKQ3IpLmYWNhm0Xe3--9" target="zjnKQ3IpLmYWNhm0Xe3--10" edge="1">
          <mxGeometry relative="1" as="geometry" />
        </mxCell>
        <mxCell id="zjnKQ3IpLmYWNhm0Xe3--24" value="" style="startArrow=none;endArrow=classic;exitX=0.5;exitY=1;entryX=0.5;entryY=0;rounded=1;fontSize=11;edgeStyle=orthogonalEdgeStyle;fontFamily=Helvetica;labelBackgroundColor=default;exitDx=0;exitDy=0;shape=flexArrow;strokeColor=#0e8088;strokeWidth=4;align=center;verticalAlign=middle;fontColor=default;fillColor=#B0E3E6;sketch=1;jiggle=2;fillStyle=solid;curveFitting=1;gradientColor=none;" parent="1" source="zjnKQ3IpLmYWNhm0Xe3--9" target="zjnKQ3IpLmYWNhm0Xe3--11" edge="1">
          <mxGeometry relative="1" as="geometry" />
        </mxCell>
        <mxCell id="zjnKQ3IpLmYWNhm0Xe3--26" value="" style="startArrow=none;endArrow=classic;exitX=1;exitY=0.5;entryX=0;entryY=0.5;rounded=1;fontSize=11;fontFamily=Helvetica;labelBackgroundColor=default;edgeStyle=orthogonalEdgeStyle;exitDx=0;exitDy=0;entryDx=0;entryDy=0;strokeColor=#0e8088;strokeWidth=4;align=center;verticalAlign=middle;fontColor=default;fillColor=#B0E3E6;shape=flexArrow;sketch=1;jiggle=2;fillStyle=solid;curveFitting=1;gradientColor=none;" parent="1" source="zjnKQ3IpLmYWNhm0Xe3--6" target="zjnKQ3IpLmYWNhm0Xe3--13" edge="1">
          <mxGeometry relative="1" as="geometry" />
        </mxCell>
        <mxCell id="zjnKQ3IpLmYWNhm0Xe3--35" value="" style="sketch=0;verticalLabelPosition=bottom;sketch=0;aspect=fixed;html=1;verticalAlign=top;align=center;outlineConnect=0;pointerEvents=1;shape=mxgraph.citrix2.mobile;fillColor=light-dark(#FFFFFF,#000000);strokeColor=light-dark(#000000,#000000);" parent="1" vertex="1">
          <mxGeometry x="1850" y="830" width="30" height="59.39" as="geometry" />
        </mxCell>
        <mxCell id="zjnKQ3IpLmYWNhm0Xe3--56" style="rounded=1;orthogonalLoop=1;jettySize=auto;html=1;exitX=0.5;exitY=1;exitDx=0;exitDy=0;entryX=0.5;entryY=0;entryDx=0;entryDy=0;shape=flexArrow;fillColor=#B0E3E6;strokeColor=#0e8088;strokeWidth=4;gradientColor=none;fillStyle=solid;sketch=1;curveFitting=1;jiggle=2;" parent="1" source="zjnKQ3IpLmYWNhm0Xe3--1" target="zjnKQ3IpLmYWNhm0Xe3--38" edge="1">
          <mxGeometry relative="1" as="geometry" />
        </mxCell>
        <mxCell id="zjnKQ3IpLmYWNhm0Xe3--57" value="" style="group;fontSize=110;" parent="1" vertex="1" connectable="0">
          <mxGeometry x="130" y="100" width="2740" height="202" as="geometry" />
        </mxCell>
        <mxCell id="zjnKQ3IpLmYWNhm0Xe3--58" value="&lt;div&gt;&lt;font style=&quot;font-size: 110px;&quot;&gt;When Kamran clicks &quot;&lt;span style=&quot;color: rgb(255, 0, 128);&quot;&gt;Post&lt;/span&gt;&quot; on X (Twitter)&lt;/font&gt;&lt;/div&gt;" style="text;html=1;align=left;verticalAlign=middle;whiteSpace=wrap;rounded=0;fontFamily=Gloria Hallelujah;fontSource=https%3A%2F%2Ffonts.googleapis.com%2Fcss%3Ffamily%3DGloria%2BHallelujah;fontSize=45;fontColor=default;" parent="zjnKQ3IpLmYWNhm0Xe3--57" vertex="1">
          <mxGeometry x="38.03" width="2701.97" height="170" as="geometry" />
        </mxCell>
        <mxCell id="zjnKQ3IpLmYWNhm0Xe3--59" value="" style="shape=link;html=1;rounded=0;fontFamily=Gloria Hallelujah;fontSource=https%3A%2F%2Ffonts.googleapis.com%2Fcss%3Ffamily%3DGloria%2BHallelujah;fontSize=31;fontColor=default;width=0;strokeColor=light-dark(#000000,#76B7AC);strokeWidth=8;" parent="zjnKQ3IpLmYWNhm0Xe3--57" edge="1">
          <mxGeometry width="100" relative="1" as="geometry">
            <mxPoint y="170" as="sourcePoint" />
            <mxPoint as="targetPoint" />
          </mxGeometry>
        </mxCell>
        <mxCell id="zjnKQ3IpLmYWNhm0Xe3--43" value="" style="image;aspect=fixed;perimeter=ellipsePerimeter;html=1;align=center;shadow=0;dashed=0;spacingTop=3;image=img/lib/active_directory/cell_phone.svg;container=0;" parent="1" vertex="1">
          <mxGeometry x="1876.4" y="320" width="109.2" height="260" as="geometry" />
        </mxCell>
        <mxCell id="zjnKQ3IpLmYWNhm0Xe3--46" value="&lt;font style=&quot;font-size: 136px;&quot;&gt;V&lt;/font&gt;" style="verticalLabelPosition=middle;shadow=0;dashed=0;align=center;html=1;verticalAlign=middle;strokeWidth=4;shape=ellipse;aspect=fixed;fontSize=50;fillColor=#b0e3e6;strokeColor=#0e8088;container=0;" parent="1" vertex="1">
          <mxGeometry x="1890" y="883.5" width="186.5" height="186.5" as="geometry" />
        </mxCell>
        <mxCell id="zjnKQ3IpLmYWNhm0Xe3--3" value="3. Request Validation" style="whiteSpace=wrap;strokeWidth=2;fontSize=75;fontFamily=Gloria Hallelujah;fontSource=https%3A%2F%2Ffonts.googleapis.com%2Fcss%3Ffamily%3DGloria%2BHallelujah;labelBackgroundColor=none;strokeColor=#b46504;align=center;verticalAlign=middle;fillColor=#fad7ac;rounded=1;perimeterSpacing=14;sketch=1;curveFitting=1;jiggle=2;gradientColor=none;dashed=1;dashPattern=12 12;glass=0;fontColor=default;" parent="1" vertex="1">
          <mxGeometry x="880" y="880" width="1027.5" height="158" as="geometry" />
        </mxCell>
        <mxCell id="zjnKQ3IpLmYWNhm0Xe3--1" value="1. Tweet Submission" style="whiteSpace=wrap;strokeWidth=2;fontSize=75;fontFamily=Gloria Hallelujah;fontSource=https%3A%2F%2Ffonts.googleapis.com%2Fcss%3Ffamily%3DGloria%2BHallelujah;labelBackgroundColor=none;fillColor=#fad7ac;fontColor=default;strokeColor=#b46504;rounded=1;glass=0;dashed=1;dashPattern=12 12;sketch=1;jiggle=2;curveFitting=1;align=center;verticalAlign=middle;gradientColor=none;perimeterSpacing=0;" parent="1" vertex="1">
          <mxGeometry x="930" y="360" width="941.32" height="180" as="geometry" />
        </mxCell>
        <mxCell id="zjnKQ3IpLmYWNhm0Xe3--38" value="2. API Layer Reception" style="whiteSpace=wrap;strokeWidth=2;fontSize=75;fontFamily=Gloria Hallelujah;fontSource=https%3A%2F%2Ffonts.googleapis.com%2Fcss%3Ffamily%3DGloria%2BHallelujah;labelBackgroundColor=none;fillColor=#fad7ac;strokeColor=#b46504;rounded=1;dashed=1;dashPattern=12 12;sketch=1;jiggle=2;curveFitting=1;align=center;verticalAlign=middle;fontColor=default;gradientColor=none;glass=0;" parent="1" vertex="1">
          <mxGeometry x="810" y="650" width="1167.5" height="140" as="geometry" />
        </mxCell>
        <mxCell id="zjnKQ3IpLmYWNhm0Xe3--37" value="" style="sketch=0;html=1;verticalAlign=top;labelPosition=center;verticalLabelPosition=bottom;align=center;spacingTop=-6;fontSize=11;fontStyle=1;fontColor=#999999;shape=image;aspect=fixed;imageAspect=0;image=data:image/svg+xml,PHN2ZyB4bWxucz0iaHR0cDovL3d3dy53My5vcmcvMjAwMC9zdmciIGhlaWdodD0iMzY3LjgxODMyODg1NzQyMTkiIHZpZXdCb3g9IjcuMTA1NDI3MzU3NjAxMDAyZS0xNSAwIDM2Ni40MTAxODY3Njc1NzgxIDM2Ny44MTgzMjg4NTc0MjE5IiBwcmVzZXJ2ZUFzcGVjdFJhdGlvPSJ4TWlkWU1pZCBtZWV0IiB3aWR0aD0iMzY2LjQxMDE5Njc2NzU3OTEiIHZlcnNpb249IjEuMSIgaWQ9InN2Zzk4NyIgem9vbUFuZFBhbj0ibWFnbmlmeSI+JiN4YTsgIDxwYXRoIGQ9Im0gNDguMjUxOTYsMTExLjUzOTA2IGMgLTcuNjE4NjQsMmUtNCAtMTMuNzk0NzIsNi4xNzYyOCAtMTMuNzk0OTMsMTMuNzk0OTIgMi4xZS00LDcuNjE4NjQgNi4xNzYyOSwxMy43OTQ3MiAxMy43OTQ5MywxMy43OTQ5MiBoIDE0NS4xNDY5MiB2IC0yNy41ODk4NCB6IG0gMjM4LjYwODU5LDU3LjQ1MTE3IGggNjUuNzU0NjkgYyA3LjYxODY0LC0yLjFlLTQgMTMuNzk0NzEsLTYuMTc2MjggMTMuNzk0OTIsLTEzLjc5NDkyIC0yLjFlLTQsLTcuNjE4NjQgLTYuMTc2MjgsLTEzLjc5NDcxIC0xMy43OTQ5MiwtMTMuNzk0OTIgSCAyODQuODUwNiBaIE0gMTMuNzk0OTIsMTcwLjk3NDYxIEMgNi4xNzYyODAxLDE3MC45NzQ4MiAyLjEwMDkxOWUtNCwxNzcuMTUwODkgOS4xODk5MjFlLTgsMTg0Ljc2OTUzIC04LjY5OTA4MWUtNCwxOTIuMzg4OTMgNi4xNzU1MjAxLDE5OC41NjYxOSAxMy43OTQ5MiwxOTguNTY2NCBIIDE5My4zOTg4OCBWIDE3MC45NzQ2MSBaIE0gMjg0LjMwNzgsMjI3LjU2NjQgaCA2OC4zMDc0NCBjIDcuNjE4NjQsLTIuMWUtNCAxMy43OTQ3MSwtNi4xNzYyOCAxMy43OTQ5MiwtMTMuNzk0OTIgLTIuMWUtNCwtNy42MTg2NCAtNi4xNzYyOCwtMTMuNzk0NzEgLTEzLjc5NDkyLC0xMy43OTQ5MiBoIC02NS45MjE3OCB6IG0gLTIzNi4wNTU4NCwxLjY5NzI3IGMgLTcuNjE4NjQsMmUtNCAtMTMuNzk0NzIsNi4xNzYyOCAtMTMuNzk0OTMsMTMuNzk0OTIgMi4xZS00LDcuNjE4NjQgNi4xNzYyOSwxMy43OTQ3MiAxMy43OTQ5MywxMy43OTQ5MiBIIDE5My4zOTg4OCBWIDIyOS4yNjM2NyBaIE0gMTg5LjUyMTQ5LDAgYyAtMjQuNTc0MTEsMCAtNDkuMTY3MzcsMjAuMDU1MDcgLTU5LjQzNzUsNzUuMzczMDQgaCAzMC41ODAwNyBjIDQuNjE2MzMsLTI0LjE2MjA2IDE1LjM0ODk2LC00Ny41MjE0OCAyNy44NTM1MiwtNDcuNTIxNDggMTIuMTU4OCwwIDM5LjQ1ODk4LDU3LjQ1MDQ0IDM5LjQ1ODk4LDE2MC40MTQwNiAwLDY5LjkxNTEzIC0xOS41NzgwOSwxNTIuMTE1MjQgLTQxLjE3MTg3LDE1Mi4xMTUyMyAtMTUuMjY4ODEsMmUtNSAtMjEuMjE2NjgsLTI4LjMzMzU2IC0yNS40NDMzNiwtNDYuNzE4NzQgbCAtMzAuNDE0MDYsLTAuMDY4NCBjIDQuMjIwNzQsMjAuNTQwODcgMTYuOTA3NjgsNzQuMjI0NiA1Ny43MTI4OSw3NC4yMjQ2IDUzLjQzNjcyLDAgNjguOTEyMTEsLTExMS45OTMwNSA2OC45MTIxMSwtMTgwLjQ2Mjg5IEMgMjU3LjU3MjI3LDkzLjgwMDc2IDIzNi41ODM0LDAgMTg5LjUyMTQ5LDAgWiIgc3R5bGU9ImNvbG9yOiMwMDAwMDA7b3BhY2l0eToxO2ZpbGw6IzQyODVmNDtmaWxsLW9wYWNpdHk6MTtzdHJva2UtbGluZWNhcDpyb3VuZDstaW5rc2NhcGUtc3Ryb2tlOm5vbmUiLz4mI3hhOzwvc3ZnPg==;imageBackground=none;" parent="1" vertex="1">
          <mxGeometry x="1920" y="640" width="190" height="190" as="geometry" />
        </mxCell>
        <mxCell id="zjnKQ3IpLmYWNhm0Xe3--4" value="4. Service Layer Processing" style="whiteSpace=wrap;strokeWidth=2;fontSize=75;fontFamily=Gloria Hallelujah;fontSource=https%3A%2F%2Ffonts.googleapis.com%2Fcss%3Ffamily%3DGloria%2BHallelujah;labelBackgroundColor=none;strokeColor=#b46504;align=center;verticalAlign=middle;fontColor=default;fillColor=#fad7ac;rounded=1;dashed=1;dashPattern=12 12;sketch=1;jiggle=2;curveFitting=1;gradientColor=none;glass=0;" parent="1" vertex="1">
          <mxGeometry x="780" y="1150" width="1330" height="168" as="geometry" />
        </mxCell>
        <mxCell id="zjnKQ3IpLmYWNhm0Xe3--47" value="" style="points=[];aspect=fixed;html=1;align=center;shadow=0;dashed=0;fillColor=#fad7ac;strokeColor=#b46504;shape=mxgraph.alibaba_cloud.mps_apsaravideo_media_processing;strokeWidth=3;" parent="1" vertex="1">
          <mxGeometry x="2055.39" y="1130" width="159.23" height="190" as="geometry" />
        </mxCell>
        <mxCell id="zjnKQ3IpLmYWNhm0Xe3--5" value="5. Data Transformation" style="whiteSpace=wrap;strokeWidth=2;fontSize=75;fontFamily=Gloria Hallelujah;fontSource=https%3A%2F%2Ffonts.googleapis.com%2Fcss%3Ffamily%3DGloria%2BHallelujah;labelBackgroundColor=none;strokeColor=#b46504;align=center;verticalAlign=middle;fontColor=default;fillColor=#fad7ac;rounded=1;dashed=1;dashPattern=12 12;sketch=1;jiggle=2;curveFitting=1;gradientColor=none;glass=0;" parent="1" vertex="1">
          <mxGeometry x="700" y="1440" width="1450" height="178" as="geometry" />
        </mxCell>
        <mxCell id="zjnKQ3IpLmYWNhm0Xe3--50" value="" style="verticalLabelPosition=bottom;aspect=fixed;html=1;shape=mxgraph.salesforce.transportation_and_technology2;strokeWidth=5;" parent="1" vertex="1">
          <mxGeometry x="2050" y="1480" width="170" height="170" as="geometry" />
        </mxCell>
        <mxCell id="zjnKQ3IpLmYWNhm0Xe3--6" value="6. Queueing System" style="whiteSpace=wrap;strokeWidth=2;fontSize=75;fontFamily=Gloria Hallelujah;fontSource=https%3A%2F%2Ffonts.googleapis.com%2Fcss%3Ffamily%3DGloria%2BHallelujah;labelBackgroundColor=none;strokeColor=#b46504;align=center;verticalAlign=middle;fontColor=default;fillColor=#fad7ac;rounded=1;dashed=1;dashPattern=12 12;sketch=1;jiggle=2;curveFitting=1;gradientColor=none;glass=0;" parent="1" vertex="1">
          <mxGeometry x="1048" y="1757" width="812" height="200" as="geometry" />
        </mxCell>
        <mxCell id="zjnKQ3IpLmYWNhm0Xe3--52" value="" style="points=[];aspect=fixed;html=1;align=center;shadow=0;dashed=0;fillColor=#b1ddf0;strokeColor=#10739e;shape=mxgraph.alibaba_cloud.mq_message_queue;" parent="1" vertex="1">
          <mxGeometry x="1777.2" y="1670" width="142.8" height="158.04" as="geometry" />
        </mxCell>
        <mxCell id="zjnKQ3IpLmYWNhm0Xe3--60" value="&lt;font style=&quot;color: light-dark(rgb(0, 0, 0), rgb(118, 183, 172)); font-size: 80px;&quot;&gt;System Design Engineer&lt;/font&gt;" style="text;html=1;align=center;verticalAlign=middle;whiteSpace=wrap;rounded=1;fontFamily=Gloria Hallelujah;fontSource=https%3A%2F%2Ffonts.googleapis.com%2Fcss%3Ffamily%3DGloria%2BHallelujah;fontSize=60;fontColor=default;strokeColor=none;sketch=1;curveFitting=1;jiggle=2;" parent="1" vertex="1">
          <mxGeometry x="2270" y="270" width="707.42" height="280" as="geometry" />
        </mxCell>
        <mxCell id="zjnKQ3IpLmYWNhm0Xe3--61" style="edgeStyle=elbowEdgeStyle;shape=flexArrow;curved=0;rounded=0;sketch=1;jiggle=2;curveFitting=1;orthogonalLoop=1;jettySize=auto;elbow=vertical;html=1;exitX=0;exitY=0.5;exitDx=0;exitDy=0;strokeColor=default;align=center;verticalAlign=bottom;fontFamily=Gloria Hallelujah;fontSource=https%3A%2F%2Ffonts.googleapis.com%2Fcss%3Ffamily%3DGloria%2BHallelujah;fontSize=25;fontColor=default;labelBackgroundColor=light-dark(#FFFFFF,#000000);endArrow=block;" parent="1" source="zjnKQ3IpLmYWNhm0Xe3--60" target="zjnKQ3IpLmYWNhm0Xe3--60" edge="1">
          <mxGeometry relative="1" as="geometry" />
        </mxCell>
        <mxCell id="zjnKQ3IpLmYWNhm0Xe3--65" value="" style="startArrow=none;endArrow=classic;exitX=0.5;exitY=1;entryX=0.5;entryY=0;rounded=1;fontSize=11;fontFamily=Helvetica;labelBackgroundColor=default;shape=flexArrow;strokeColor=#0e8088;strokeWidth=4;align=center;verticalAlign=middle;fontColor=default;fillColor=#B0E3E6;entryDx=0;entryDy=0;sketch=1;jiggle=2;fillStyle=solid;curveFitting=1;gradientColor=none;" parent="1" target="zjnKQ3IpLmYWNhm0Xe3--14" edge="1">
          <mxGeometry relative="1" as="geometry">
            <Array as="points" />
            <mxPoint x="480" y="1971" as="sourcePoint" />
            <mxPoint x="460" y="2093" as="targetPoint" />
          </mxGeometry>
        </mxCell>
      </root>
    </mxGraphModel>
  </diagram>
</mxfile>
